<svg id="Capa_1" data-name="Capa 1" xmlns="http://www.w3.org/2000/svg" viewBox="0 0 224 224"><defs><style>.cls-1{fill:#2c9107;}</style></defs><title>icon</title><path class="cls-1" d="M0,0V224H224V0ZM185.85,197.94c-35.88,0-50.88-25.25-57.24-56.1A141.36,141.36,0,0,1,126,117.75L112.6,104.38,98.93,118.05a140.18,140.18,0,0,1-2.61,23.79C90,172.69,75,197.94,39.08,197.94c-26.12,0-25-26-17.63-56.1C29.13,110.36,55,60.45,78.74,60.45c10.59,0,16.48,11.92,18.8,27.83.19,1.29.2,2.63.35,4L103,87V27h19V87l4.78,4.63c.14-1.14.36-2.27.52-3.35,2.33-15.91,8.26-27.83,18.85-27.83,23.75,0,49.63,49.9,57.31,81.39C210.81,171.94,212,197.94,185.85,197.94Z"/></svg>